# xmcd
#
# Track frame offsets:
#	150
#	14047
#	37975
#	56460
#	84812
#	102420
#	126205
#	150525
#	170522
#	199617
#	213772
#	231320
#
# Disc length: 3298 seconds
#
# Revision: 1
# Processed by: cddbd v1.5.1PL0 Copyright (c) Steve Scherf et al.
# Submitted via: CDex 1.50Beta5
#
DISCID=940ce00c
DTITLE=浜田麻里 - ALL MY HEART
DYEAR=1900
DGENRE=Rock
TTITLE0=With All My Heart
TTITLE1=In My Private Heaven
TTITLE2=Get Lucky Tonight
TTITLE3=Only Love
TTITLE4=Heart In Motion
TTITLE5=Til Tomorrow
TTITLE6=Out Of My Hands
TTITLE7=Heaven Knows
TTITLE8=Company
TTITLE9=Missing
TTITLE10=Precious Summer
TTITLE11=Fixing A Broken Heart
EXTD=
EXTT0=
EXTT1=
EXTT2=
EXTT3=
EXTT4=
EXTT5=
EXTT6=
EXTT7=
EXTT8=
EXTT9=
EXTT10=
EXTT11=
PLAYORDER=
